<svg width="80" height="19" viewBox="0 0 80 19" fill="none" xmlns="http://www.w3.org/2000/svg">
<g clip-path="url(#clip0_5_132)">
<path d="M1.84876 6.83129V11.732H0V0.192207H11.8564L10.6412 1.78209H1.84876V5.35497H11.2227L10.0944 6.84002H1.84876V6.83129ZM13.0281 11.732V0.192207H14.8769V11.732H13.0281ZM23.2527 11.732C19.451 11.732 16.6562 9.19864 16.6562 5.8529C16.6562 2.47221 19.451 0.192207 23.2527 0.192207H30.5002L29.285 1.78209H23.2527C21.0047 1.78209 18.5049 3.05749 18.5049 5.94025C18.5049 8.82301 21.022 10.1683 24.2595 10.1683H30.5002L29.285 11.7407H23.2527V11.732ZM36.7234 11.732V1.77336H30.639L31.8889 0.183472H45.1513L43.9362 1.77336H38.5896V11.7232H36.7234V11.732ZM46.2189 11.732V0.192207H48.0677V11.732H46.2189Z" fill="white"/>
<path d="M57.5458 11.9154C52.4249 11.9154 49.847 10.0722 49.847 5.94897C49.847 1.82575 52.4162 0 57.5458 0C62.6755 0 65.2447 1.82575 65.2447 5.94897C65.2447 10.0722 62.6668 11.9154 57.5458 11.9154ZM57.5458 1.57241C53.4838 1.57241 51.7045 2.70805 51.7045 5.94897C51.7045 9.18989 53.4838 10.343 57.5458 10.343C61.6079 10.343 63.3872 9.18989 63.3872 5.94897C63.3872 2.70805 61.6079 1.57241 57.5458 1.57241ZM68.5776 2.62069V11.7232H66.9025V1.20552C66.9025 0.375632 67.3798 0.0349425 67.9267 0.0349425C68.1697 0.0349425 68.4388 0.104828 68.7339 0.393103L77.9343 9.25977V0.192184H79.6268V10.6575C79.6268 11.4874 79.132 11.828 78.5852 11.828C78.3422 11.828 78.0905 11.7756 77.7954 11.4874L68.5776 2.62069Z" fill="#34FF82"/>
<path d="M57.5198 7.2331C58.234 7.2331 58.8131 6.65035 58.8131 5.93149C58.8131 5.21263 58.234 4.62988 57.5198 4.62988C56.8056 4.62988 56.2265 5.21263 56.2265 5.93149C56.2265 6.65035 56.8056 7.2331 57.5198 7.2331Z" fill="white"/>
<path d="M0 11.7319H1.84876V13.3043H0V11.7319ZM50.1334 18.9214L50.6282 18.2837H54.2649C54.9767 18.2837 55.3239 18.0303 55.3239 17.5411C55.3239 16.9296 54.8204 16.851 53.9525 16.851H52.0777C50.9059 16.851 50.3591 16.3968 50.3591 15.5843C50.3591 14.737 50.9233 14.2478 52.1992 14.2478H55.9488L55.4627 14.8855H52.1384C51.4354 14.8855 51.0795 15.1388 51.0795 15.628C51.0795 16.222 51.5743 16.2919 52.4509 16.2919H54.3257C55.4541 16.2919 56.0356 16.7025 56.0356 17.5499C56.0356 18.4409 55.4714 18.9214 54.1955 18.9214H50.1334ZM58.4919 18.9214V14.8942H56.0269L56.5303 14.2565H61.8943L61.3996 14.8942H59.2384V18.9214H58.4919ZM64.6631 19C62.5887 19 61.5471 18.2575 61.5471 16.5889C61.5471 14.9204 62.5887 14.1779 64.6631 14.1779C66.7376 14.1779 67.7791 14.9204 67.7791 16.5889C67.7791 18.2575 66.7376 19 64.6631 19ZM64.6631 14.8069C63.0227 14.8069 62.3023 15.2699 62.3023 16.5802C62.3023 17.8906 63.0227 18.3623 64.6631 18.3623C66.3036 18.3623 67.024 17.8906 67.024 16.5802C67.024 15.2699 66.3123 14.8069 64.6631 14.8069ZM73.5424 18.9214L71.8846 17.3839H69.2199V18.9214H68.4735V16.7724H71.7978C72.6657 16.7724 73.4469 16.5191 73.4469 15.8552C73.4469 15.1126 72.7612 14.903 71.7978 14.903H68.4648L68.9595 14.2653H72.0755C73.1605 14.2653 74.2194 14.6846 74.2194 15.8202C74.2194 16.6588 73.6118 17.1655 72.6657 17.2529L74.5666 18.9301H73.5424V18.9214ZM75.0439 18.9214V14.2565H79.9653L79.4705 14.8942H75.7904V16.3007H79.7483L79.3143 16.8597H75.7904V18.2924H80L79.5053 18.9301H75.0439V18.9214Z" fill="#898989"/>
</g>
<defs>
<clipPath id="clip0_5_132">
<rect width="80" height="19" fill="white"/>
</clipPath>
</defs>
</svg>
