<svg width="66" height="16" viewBox="0 0 66 16" fill="none" xmlns="http://www.w3.org/2000/svg">
<g clip-path="url(#clip0_5_132)">
<path d="M1.52523 5.75264V9.87954H0V0.161836H9.78149L8.779 1.50069H1.52523V4.50942H9.25876L8.32787 5.76H1.52523V5.75264ZM10.7482 9.87954V0.161836H12.2734V9.87954H10.7482ZM19.1835 9.87954C16.0471 9.87954 13.7413 7.7462 13.7413 4.92873C13.7413 2.08184 16.0471 0.161836 19.1835 0.161836H25.1626L24.1601 1.50069H19.1835C17.3288 1.50069 15.2666 2.57471 15.2666 5.0023C15.2666 7.42988 17.3432 8.56276 20.0141 8.56276H25.1626L24.1601 9.88689H19.1835V9.87954ZM30.2968 9.87954V1.49333H25.2772L26.3083 0.15448H37.2499L36.2474 1.49333H31.8364V9.87218H30.2968V9.87954ZM38.1306 9.87954V0.161836H39.6559V9.87954H38.1306Z" fill="white"/>
<path d="M47.4753 10.034C43.2505 10.034 41.1238 8.48184 41.1238 5.00965C41.1238 1.53747 43.2434 0 47.4753 0C51.7073 0 53.8268 1.53747 53.8268 5.00965C53.8268 8.48184 51.7001 10.034 47.4753 10.034ZM47.4753 1.32414C44.1241 1.32414 42.6562 2.28046 42.6562 5.00965C42.6562 7.73885 44.1241 8.70989 47.4753 8.70989C50.8265 8.70989 52.2945 7.73885 52.2945 5.00965C52.2945 2.28046 50.8265 1.32414 47.4753 1.32414ZM56.5765 2.2069V9.87218H55.1945V1.01517C55.1945 0.316322 55.5884 0.0294253 56.0395 0.0294253C56.24 0.0294253 56.462 0.0882758 56.7054 0.331034L64.2958 7.7977V0.161839H65.6921V8.97471C65.6921 9.67356 65.2839 9.96046 64.8328 9.96046C64.6323 9.96046 64.4247 9.91632 64.1812 9.67356L56.5765 2.2069Z" fill="#34FF82"/>
<path d="M47.4538 6.09105C48.0431 6.09105 48.5208 5.60031 48.5208 4.99496C48.5208 4.3896 48.0431 3.89886 47.4538 3.89886C46.8646 3.89886 46.3869 4.3896 46.3869 4.99496C46.3869 5.60031 46.8646 6.09105 47.4538 6.09105Z" fill="white"/>
<path d="M0 9.87952H1.52523V11.2037H0V9.87952ZM41.3601 15.9338L41.7683 15.3968H44.7686C45.3558 15.3968 45.6422 15.1834 45.6422 14.7715C45.6422 14.2565 45.2269 14.1903 44.5108 14.1903H42.9641C41.9974 14.1903 41.5463 13.8078 41.5463 13.1237C41.5463 12.4101 42.0117 11.9981 43.0643 11.9981H46.1578L45.7568 12.5351H43.0142C42.4342 12.5351 42.1406 12.7485 42.1406 13.1604C42.1406 13.6607 42.5488 13.7195 43.272 13.7195H44.8187C45.7496 13.7195 46.2294 14.0653 46.2294 14.7788C46.2294 15.5292 45.7639 15.9338 44.7113 15.9338H41.3601ZM48.2558 15.9338V12.5425H46.2222L46.6375 12.0055H51.0628L50.6547 12.5425H48.8717V15.9338H48.2558ZM53.3471 16C51.6357 16 50.7764 15.3747 50.7764 13.9696C50.7764 12.5646 51.6357 11.9393 53.3471 11.9393C55.0585 11.9393 55.9178 12.5646 55.9178 13.9696C55.9178 15.3747 55.0585 16 53.3471 16ZM53.3471 12.4689C51.9937 12.4689 51.3994 12.8588 51.3994 13.9623C51.3994 15.0657 51.9937 15.463 53.3471 15.463C54.7004 15.463 55.2948 15.0657 55.2948 13.9623C55.2948 12.8588 54.7076 12.4689 53.3471 12.4689ZM60.6725 15.9338L59.3048 14.6391H57.1064V15.9338H56.4906V14.1241H59.2332C59.9492 14.1241 60.5937 13.9108 60.5937 13.3517C60.5937 12.7264 60.028 12.5499 59.2332 12.5499H56.4835L56.8916 12.0128H59.4623C60.3574 12.0128 61.231 12.366 61.231 13.3223C61.231 14.0285 60.7297 14.4551 59.9492 14.5287L61.5174 15.9411H60.6725V15.9338ZM61.9113 15.9338V12.0055H65.9714L65.5632 12.5425H62.5271V13.7269H65.7923L65.4343 14.1977H62.5271V15.4041H66L65.5918 15.9411H61.9113V15.9338Z" fill="#898989"/>
</g>
<defs>
<clipPath id="clip0_5_132">
<rect width="66" height="16" fill="white"/>
</clipPath>
</defs>
</svg>
