<svg width="18" height="18" viewBox="0 0 18 18" fill="none" xmlns="http://www.w3.org/2000/svg">
<path d="M15.9492 0.463623H1.89327C0.932923 0.463623 0.147186 1.24936 0.147186 2.1224V16.1784C0.147186 17.1387 0.932923 17.8371 1.80596 17.8371H15.8619C16.8223 17.8371 17.5207 17.0514 17.5207 16.1784V2.1224C17.608 1.24936 16.9096 0.463623 15.9492 0.463623ZM16.1238 12.5989C16.1238 14.6942 14.4651 16.353 12.3698 16.353H5.47273C3.37744 16.353 1.71866 14.6942 1.71866 12.5989V5.70187C1.71866 3.60657 3.37744 1.94779 5.47273 1.94779H12.3698C14.4651 1.94779 16.1238 3.60657 16.1238 5.70187V12.5989Z" fill="#F2F2F2"/>
<path d="M9.92524 10.0671H11.3221L11.9332 7.79716H9.92524V6.66221C9.92524 6.05108 9.92524 5.52726 11.0602 5.52726H11.9332V3.60657C11.7586 3.60657 11.0602 3.60657 10.2745 3.60657C8.70298 3.60657 7.56803 4.56691 7.56803 6.31299V7.88447H5.82195V10.1544H7.56803V15.0434H9.83793V10.1544L9.92524 10.0671Z" fill="#F2F2F2"/>
</svg>
