<svg width="19" height="18" viewBox="0 0 19 18" fill="none" xmlns="http://www.w3.org/2000/svg">
<path d="M16.481 0.376343H2.42507C1.46473 0.376343 0.766296 1.16208 0.766296 2.03512V16.0911C0.766296 17.0514 1.55203 17.7498 2.42507 17.7498H16.481C17.4414 17.7498 18.1398 16.9641 18.1398 16.0911V2.03512C18.2271 1.16208 17.4414 0.376343 16.481 0.376343ZM16.6556 12.5116C16.6556 14.6069 14.9969 16.2657 12.9016 16.2657H6.00454C3.90924 16.2657 2.25047 14.6069 2.25047 12.5116V5.61459C2.25047 3.51929 3.90924 1.86051 6.00454 1.86051H12.9016C14.9969 1.86051 16.6556 3.51929 16.6556 5.61459V12.5116Z" fill="#F2F2F2"/>
<path d="M12.8143 5.17811C12.3777 4.65429 12.1158 4.04316 12.1158 3.34473H10.1078V11.2894C10.1078 11.7259 9.93322 12.1624 9.58401 12.4243C9.23479 12.6863 8.88557 12.8609 8.44905 12.8609C7.57601 12.8609 6.79028 12.0751 6.79028 11.2021C6.79028 10.3291 7.83793 9.2814 8.97288 9.63062V7.62262C6.79028 7.36071 4.78228 9.01949 4.78228 11.2021C4.78228 13.3847 6.52836 14.8689 8.44905 14.8689C10.3697 14.8689 12.1158 13.2101 12.1158 11.2021V7.1861C12.9016 7.79723 13.8619 8.05914 14.9096 8.05914V6.05115C14.9096 6.05115 13.6873 6.05115 12.8143 5.09081V5.17811Z" fill="#F2F2F2"/>
</svg>
