<svg xmlns="http://www.w3.org/2000/svg" xml:space="preserve" style="enable-background:new 0 0 32 32" viewBox="0 0 32 32"><path d="M16 2.53C5.34 2.53 0 6.4 0 15.15 0 23.89 5.36 27.8 16 27.8s16-3.91 16-12.66C32 6.4 26.66 2.53 16 2.53zm0 21.94c-8.44 0-12.14-2.45-12.14-9.32 0-6.88 3.7-9.28 12.14-9.28s12.14 2.41 12.14 9.28c0 6.87-3.7 9.32-12.14 9.32z" style="fill:#34ff82"/><path d="M16 17.93c1.48 0 2.69-1.24 2.69-2.76 0-1.52-1.2-2.76-2.69-2.76-1.48 0-2.69 1.24-2.69 2.76 0 1.52 1.21 2.76 2.69 2.76z" style="fill:#fff"/></svg>