<svg width="18" height="18" viewBox="0 0 18 18" fill="none" xmlns="http://www.w3.org/2000/svg">
<path d="M16.1867 0.289062H2.04348C1.17044 0.289062 0.384705 1.0748 0.384705 1.94784V16.0038C0.384705 16.9641 1.17044 17.6626 2.04348 17.6626H16.0994C17.0598 17.6626 17.7582 16.8768 17.7582 16.0038V1.94784C17.8455 1.0748 17.0598 0.289062 16.1867 0.289062ZM16.274 12.4243C16.274 14.5196 14.6153 16.1784 12.52 16.1784H5.62295C3.52765 16.1784 1.86887 14.5196 1.86887 12.4243V5.52731C1.86887 3.43201 3.52765 1.77323 5.62295 1.77323H12.52C14.6153 1.77323 16.274 3.43201 16.274 5.52731V12.4243Z" fill="#F2F2F2"/>
<path d="M9.1151 5.44C7.19441 5.44 5.53564 7.01148 5.53564 9.01947C5.53564 11.0275 7.10711 12.5989 9.1151 12.5989C11.0358 12.5989 12.6946 11.0275 12.6946 9.01947C12.6946 7.01148 11.1231 5.44 9.1151 5.44ZM9.1151 11.2021C7.89285 11.2021 6.9325 10.2417 6.9325 9.01947C6.9325 7.79721 7.89285 6.83687 9.1151 6.83687C10.3374 6.83687 11.2977 7.79721 11.2977 9.01947C11.2977 10.2417 10.3374 11.2021 9.1151 11.2021Z" fill="#F2F2F2"/>
<path d="M13.3057 6.05113C13.7879 6.05113 14.1787 5.66026 14.1787 5.17809C14.1787 4.69593 13.7879 4.30505 13.3057 4.30505C12.8235 4.30505 12.4327 4.69593 12.4327 5.17809C12.4327 5.66026 12.8235 6.05113 13.3057 6.05113Z" fill="#F2F2F2"/>
</svg>
