<svg width="84" height="21" viewBox="0 0 84 21" fill="none" xmlns="http://www.w3.org/2000/svg">
<g clip-path="url(#clip0_14_591)">
<path d="M2.6282 7.66198V12.8243H0.720291V0.668443H12.956L11.7019 2.34321H2.6282V6.10684H12.3021L11.1376 7.67118H2.6282V7.66198ZM14.1652 12.8243V0.668443H16.0731V12.8243H14.1652ZM24.7169 12.8243C20.7936 12.8243 17.9093 10.1557 17.9093 6.63135C17.9093 3.07017 20.7936 0.668443 24.7169 0.668443H32.1962L30.9422 2.34321H24.7169C22.397 2.34321 19.8173 3.68671 19.8173 6.72338C19.8173 9.76004 22.4149 11.1772 25.7559 11.1772H32.1962L30.9422 12.8335H24.7169V12.8243ZM38.6186 12.8243V2.33401H32.3396L33.6294 0.659241H47.3162L46.0621 2.33401H40.5444V12.8151H38.6186V12.8243ZM48.4179 12.8243V0.668443H50.3258V12.8243H48.4179Z" fill="white"/>
<path d="M60.1072 13.0176C54.8224 13.0176 52.1621 11.0759 52.1621 6.73258C52.1621 2.38923 54.8134 0.466003 60.1072 0.466003C65.4009 0.466003 68.0523 2.38923 68.0523 6.73258C68.0523 11.0759 65.392 13.0176 60.1072 13.0176ZM60.1072 2.12237C55.9152 2.12237 54.0789 3.31863 54.0789 6.73258C54.0789 10.1465 55.9152 11.3612 60.1072 11.3612C64.2992 11.3612 66.1354 10.1465 66.1354 6.73258C66.1354 3.31863 64.2992 2.12237 60.1072 2.12237ZM71.4919 3.22661V12.8151H69.7631V1.73588C69.7631 0.86169 70.2558 0.502812 70.8201 0.502812C71.0709 0.502812 71.3486 0.576428 71.6531 0.880095L81.1479 10.2202V0.668448H82.8945V11.6925C82.8945 12.5667 82.384 12.9255 81.8197 12.9255C81.5689 12.9255 81.3091 12.8703 81.0046 12.5667L71.4919 3.22661Z" fill="#34FF82"/>
<path d="M60.0803 8.08528C60.8174 8.08528 61.4149 7.47142 61.4149 6.71418C61.4149 5.95694 60.8174 5.34308 60.0803 5.34308C59.3432 5.34308 58.7457 5.95694 58.7457 6.71418C58.7457 7.47142 59.3432 8.08528 60.0803 8.08528Z" fill="white"/>
<path d="M0.720291 12.8243H2.6282V14.4807H0.720291V12.8243ZM52.4576 20.3976L52.9682 19.7259H56.7213C57.4558 19.7259 57.8141 19.459 57.8141 18.9437C57.8141 18.2995 57.2946 18.2167 56.3989 18.2167H54.4641C53.2548 18.2167 52.6905 17.7382 52.6905 16.8824C52.6905 15.9898 53.2728 15.4745 54.5895 15.4745H58.459L57.9574 16.1463H54.5268C53.8012 16.1463 53.434 16.4131 53.434 16.9284C53.434 17.5542 53.9446 17.6278 54.8492 17.6278H56.784C57.9485 17.6278 58.5486 18.0603 58.5486 18.9529C58.5486 19.8915 57.9664 20.3976 56.6497 20.3976H52.4576ZM61.0835 20.3976V16.1555H58.5397L59.0592 15.4837H64.5948L64.0842 16.1555H61.8539V20.3976H61.0835ZM67.4522 20.4804C65.3114 20.4804 64.2365 19.6983 64.2365 17.9407C64.2365 16.1831 65.3114 15.4009 67.4522 15.4009C69.593 15.4009 70.6678 16.1831 70.6678 17.9407C70.6678 19.6983 69.593 20.4804 67.4522 20.4804ZM67.4522 16.0635C65.7592 16.0635 65.0158 16.5512 65.0158 17.9315C65.0158 19.3118 65.7592 19.8087 67.4522 19.8087C69.1451 19.8087 69.8886 19.3118 69.8886 17.9315C69.8886 16.5512 69.1541 16.0635 67.4522 16.0635ZM76.6155 20.3976L74.9046 18.7781H72.1547V20.3976H71.3844V18.1339H74.8151C75.7108 18.1339 76.517 17.867 76.517 17.1677C76.517 16.3855 75.8093 16.1647 74.8151 16.1647H71.3755L71.886 15.4929H75.1017C76.2214 15.4929 77.3142 15.9346 77.3142 17.1309C77.3142 18.0143 76.6871 18.548 75.7108 18.64L77.6724 20.4068H76.6155V20.3976ZM78.1651 20.3976V15.4837H83.2439L82.7333 16.1555H78.9354V17.637H83.0199L82.5721 18.2259H78.9354V19.7351H83.2797L82.7691 20.4068H78.1651V20.3976Z" fill="#898989"/>
</g>
<defs>
<clipPath id="clip0_14_591">
<rect width="82.5594" height="20.0144" fill="white" transform="translate(0.720291 0.466003)"/>
</clipPath>
</defs>
</svg>
